# xmcd CD database file
#
# Track frame offsets:
#	150
#	19680
#	33113
#	59000
#	74136
#	98842
#	122422
#
# Disc length: 1955 seconds
#
# Revision: 1
# Processed by: cddbd v1.5.1PL0 Copyright (c) Steve Scherf et al.
# Submitted via: CDex 1.51
#
DISCID=5b07a107
DTITLE=Rythm and Rhyme - Katherine Dawn
DYEAR=2001
DGENRE=Country
TTITLE0=Rhythm And Rhyme
TTITLE1=Time Is Now
TTITLE2=Ode To Billy Joe
TTITLE3=Mid-Day Blues
TTITLE4=Perdy Inside
TTITLE5=Try Again
TTITLE6=Old #9
EXTD=YEAR: 2001
EXTT0=
EXTT1=
EXTT2=
EXTT3=
EXTT4=
EXTT5=
EXTT6=
PLAYORDER=
